HIERARCHY
ROOT SimulationBone
{
	OFFSET 0.000000 0.000000 0.000000
	CHANNELS 6 Xposition Yposition Zposition Zrotation Yrotation Xrotation 
	JOINT Hips
	{
		OFFSET 0.000000 0.000000 0.000000
		CHANNELS 6 Xposition Yposition Zposition Zrotation Yrotation Xrotation 
		JOINT LeftUpLeg
		{
			OFFSET 0.103462 1.857844 10.548508
			CHANNELS 3 Zrotation Yrotation Xrotation
			JOINT LeftLeg
			{
				OFFSET 43.500000 -0.000046 -0.000008
				CHANNELS 3 Zrotation Yrotation Xrotation
				JOINT LeftFoot
				{
					OFFSET 42.372192 0.000000 0.000004
					CHANNELS 3 Zrotation Yrotation Xrotation
					JOINT LeftToe
					{
						OFFSET 17.299997 -0.000003 0.000018
						CHANNELS 3 Zrotation Yrotation Xrotation
						End Site
						{
							OFFSET 0.000000 0.000000 0.000000
						}
					}
				}
			}
		}
		JOINT RightUpLeg
		{
			OFFSET 0.103459 1.857830 -10.548515
			CHANNELS 3 Zrotation Yrotation Xrotation
			JOINT RightLeg
			{
				OFFSET 43.500046 -0.000034 -0.000006
				CHANNELS 3 Zrotation Yrotation Xrotation
				JOINT RightFoot
				{
					OFFSET 42.372253 0.000015 -0.000006
					CHANNELS 3 Zrotation Yrotation Xrotation
					JOINT RightToe
					{
						OFFSET 17.299969 -0.000012 0.000010
						CHANNELS 3 Zrotation Yrotation Xrotation
						End Site
						{
							OFFSET 0.000000 0.000000 0.000000
						}
					}
				}
			}
		}
		JOINT Spine
		{
			OFFSET 6.901964 -2.603727 0.000001
			CHANNELS 3 Zrotation Yrotation Xrotation
			JOINT Spine1
			{
				OFFSET 12.588105 -0.000009 0.000006
				CHANNELS 3 Zrotation Yrotation Xrotation
				JOINT Spine2
				{
					OFFSET 12.343197 0.000007 -0.000002
					CHANNELS 3 Zrotation Yrotation Xrotation
					JOINT Neck
					{
						OFFSET 25.832897 0.000002 -0.000001
						CHANNELS 3 Zrotation Yrotation Xrotation
						JOINT Head
						{
							OFFSET 11.766611 0.000000 0.000004
							CHANNELS 3 Zrotation Yrotation Xrotation
							End Site
							{
								OFFSET 0.000000 0.000000 0.000000
							}
						}
					}
					JOINT LeftShoulder
					{
						OFFSET 19.745911 -1.480377 6.000110
						CHANNELS 3 Zrotation Yrotation Xrotation
						JOINT LeftArm
						{
							OFFSET 11.284108 -0.000006 -0.000027
							CHANNELS 3 Zrotation Yrotation Xrotation
							JOINT LeftForeArm
							{
								OFFSET 33.000046 -0.000010 0.000031
								CHANNELS 3 Zrotation Yrotation Xrotation
								JOINT LeftHand
								{
									OFFSET 25.200014 0.000009 0.000001
									CHANNELS 3 Zrotation Yrotation Xrotation
									End Site
									{
										OFFSET 0.000000 0.000000 0.000000
									}
								}
							}
						}
					}
					JOINT RightShoulder
					{
						OFFSET 19.746105 -1.480358 -6.000092
						CHANNELS 3 Zrotation Yrotation Xrotation
						JOINT RightArm
						{
							OFFSET 11.284138 -0.000011 -0.000001
							CHANNELS 3 Zrotation Yrotation Xrotation
							JOINT RightForeArm
							{
								OFFSET 33.000088 0.000023 -0.000007
								CHANNELS 3 Zrotation Yrotation Xrotation
								JOINT RightHand
								{
									OFFSET 25.199776 0.000128 0.000427
									CHANNELS 3 Zrotation Yrotation Xrotation
									End Site
									{
										OFFSET 0.000000 0.000000 0.000000
									}
								}
							}
						}
					}
				}
			}
		}
	}
}
MOTION
Frames: 15
Frame Time: 0.033333
199.429576 0.000000 200.094369 180.000000 -51.935421 180.000000 -1.013552 90.033737 1.000211 90.829689 1.935844 -177.638766 150.166531 -9.144894 172.978352 -75.646462 1.792690 -5.077430 71.260989 1.328463 -6.850870 21.454563 0.003100 -0.000003 170.667508 -6.139892 -176.334625 -24.491849 -1.817409 6.456307 89.169021 -4.300799 0.519224 21.454558 -0.003111 -0.000017 6.416252 0.558388 0.195995 2.821762 1.111875 0.405285 2.503606 1.114448 0.398571 12.090190 5.462281 -5.415372 -9.505777 0.322512 -5.128398 -154.912133 -82.112329 -26.961919 -19.766081 65.700484 26.804388 -31.852553 -10.615482 0.982696 8.361389 -2.869926 0.374866 -168.535669 77.446449 13.140521 9.702414 -60.069499 -27.197202 -45.534088 14.451796 -1.605125 6.378368 7.204605 -4.946508 
197.581675 0.000000 202.794723 180.000000 -51.620406 180.000000 -1.297559 89.875076 0.952129 90.269422 1.894069 -177.913373 147.192940 -8.413695 173.857575 -70.144438 0.997152 -4.426546 72.362501 0.542291 -8.141935 21.454553 0.003091 -0.000002 171.939712 -5.992999 -176.546812 -24.864745 -1.814463 6.193762 91.022659 -4.078919 0.714845 21.454557 -0.003104 -0.000016 6.353842 0.516221 0.431910 2.698848 1.022396 0.875511 2.380723 1.027796 0.869319 11.552697 5.120782 -5.331363 -9.312934 0.830965 -5.192671 -152.662064 -81.848998 -29.247106 -13.553284 66.610573 32.178018 -30.157187 -9.237829 0.859249 8.966868 -4.927439 -3.301886 -169.771168 77.721426 11.880282 8.124059 -59.760822 -24.749313 -47.481576 14.727676 -1.682479 6.234075 6.943082 -5.715530 
195.766570 0.000000 205.528427 180.000000 -51.289162 180.000000 -1.464905 89.529587 0.924761 89.684203 2.170898 -178.183394 145.135509 -7.923402 174.194440 -62.435258 0.880593 -4.070855 72.653856 0.051233 -8.997587 21.454551 0.003097 0.000001 173.188790 -6.125402 -176.985160 -25.374767 -1.719110 6.088668 92.922572 -3.985111 0.814862 21.454558 -0.003109 -0.000017 6.278340 0.561223 0.643898 2.550232 1.108392 1.299790 2.232170 1.116362 1.293080 11.008545 4.429596 -5.265214 -9.502857 1.294884 -5.312621 -150.948246 -81.401156 -30.995098 -6.834303 66.844206 38.722190 -28.845627 -8.373255 0.778163 9.937067 -5.256727 -10.310159 -171.766635 78.199007 9.847629 7.246287 -59.362212 -23.190488 -49.162957 14.779252 -1.738766 5.549325 7.705610 -6.437396 
193.980872 0.000000 208.294318 180.000000 -50.955616 180.000000 -1.590546 89.313217 0.966171 89.035752 2.120130 -178.454470 144.475904 -7.117798 175.194557 -51.831761 -0.125015 -4.253058 71.252451 0.629480 -7.433344 21.454557 0.003092 0.000004 174.810591 -5.979801 -177.407880 -25.084718 -1.790790 5.953475 94.452412 -3.850150 1.145706 21.454558 -0.003108 -0.000017 6.188396 0.552120 0.819086 2.371890 1.087718 1.649094 2.053866 1.097789 1.642492 10.553545 3.898848 -5.281824 -9.870221 1.308194 -5.382447 -149.382808 -81.100642 -32.588882 -0.553910 66.929577 43.557332 -27.358610 -7.447826 0.691146 10.383061 -4.208114 -11.906053 -174.258015 78.504500 7.311400 6.830117 -58.849955 -22.538905 -50.524231 14.950188 -1.794133 4.886169 8.478613 -6.280615 
192.207400 0.000000 211.080553 180.000000 -50.625072 180.000000 -1.711706 89.000023 1.001405 88.323173 2.333192 -178.962183 145.408881 -6.755604 175.230060 -38.532553 0.032163 -4.154748 69.621450 0.247178 -8.047406 21.454550 0.003090 -0.000001 176.463647 -5.956700 -177.676006 -24.598170 -1.882657 5.529698 95.853249 -3.522528 1.567284 21.454560 -0.003106 -0.000018 6.091876 0.596378 1.026296 2.181587 1.173802 2.063442 1.863640 1.186385 2.056309 10.080815 3.505915 -5.298267 -10.363922 1.156887 -5.391614 -148.099142 -81.019280 -33.895029 5.243245 66.922965 47.949820 -25.968869 -6.849514 0.628781 9.873683 -3.446212 -6.543013 -176.233688 78.753017 5.302204 6.416153 -58.387216 -21.888074 -51.485935 14.913136 -1.823382 4.757985 7.685637 -6.604555 
190.455567 0.000000 213.870325 180.000000 -50.290840 180.000000 -1.732581 88.717468 0.988042 87.738480 2.359335 -179.714423 147.359515 -6.059001 173.684471 -24.958708 1.440532 -2.979570 69.846471 -0.718829 -8.391686 21.454551 0.003083 0.000001 178.489003 -5.560498 -178.472993 -23.709994 -1.687968 5.190758 96.944836 -3.263302 2.023810 21.454560 -0.003117 -0.000019 6.025134 0.613585 1.248487 2.050705 1.205594 2.507441 1.732893 1.220846 2.500129 9.381027 3.101121 -5.242914 -10.710611 1.194545 -5.375914 -147.396056 -81.072645 -34.603948 10.355206 66.823852 51.876144 -24.758223 -6.328666 0.575551 9.979396 -1.446375 -1.098768 -177.553390 79.091528 3.963734 6.011125 -58.352055 -21.168095 -51.945515 14.747087 -1.827624 5.242006 7.598182 -6.179585 
188.720012 0.000000 216.654578 180.000000 -49.959314 180.000000 -1.567603 88.266907 0.847060 87.315940 2.731091 179.339260 149.689866 -5.497498 174.928193 -13.856035 2.600990 -2.492664 70.639510 -1.602509 -10.148439 21.454550 0.003089 -0.000001 -179.644343 -5.209500 -179.334471 -23.612756 -1.294395 4.813947 97.702981 -2.952008 2.899169 21.454560 -0.003107 -0.000017 5.967785 0.725905 1.438865 1.940902 1.428340 2.889535 1.623134 1.445896 2.880861 8.672313 2.225969 -5.031216 -10.925777 1.584142 -5.374205 -145.763217 -80.843348 -36.268045 14.481553 66.569489 55.913482 -23.541079 -5.732717 0.518216 10.664668 0.523516 1.238521 -179.276060 79.450215 2.217442 5.971690 -58.354739 -21.088332 -51.858440 14.714521 -1.822527 5.254916 7.096859 -6.096393 
186.999184 0.000000 219.436114 180.000000 -49.635144 180.000000 -1.607342 87.986130 0.602522 86.986054 2.050238 178.575270 150.293818 -4.563095 177.661048 -12.180507 2.118205 -3.572567 70.569146 -0.859244 -10.261958 21.454550 0.003084 -0.000003 -178.267418 -3.701399 -178.629528 -24.211146 -1.491552 3.794168 98.236678 -2.206770 3.757826 21.454560 -0.003116 -0.000018 5.937344 0.614610 1.483037 1.877612 1.205867 2.975654 1.559899 1.223940 2.968325 8.341841 1.908263 -4.792103 -11.310815 1.589930 -5.172573 -144.513142 -80.588958 -37.543982 17.614887 66.306124 58.941493 -22.327747 -4.877098 0.444458 11.191147 2.125306 1.213214 178.134598 79.598806 -0.412100 5.965060 -58.515132 -21.561557 -51.105664 15.019629 -1.817884 4.993713 6.088691 -6.163113 
185.267542 0.000000 222.206380 180.000000 -49.307710 180.000000 -1.593388 87.629044 0.235192 87.059279 1.063180 177.867397 150.044366 -3.772501 175.530179 -16.089718 1.462981 -1.630646 64.856410 -0.329683 -3.891587 21.454553 0.003092 0.000001 -177.426212 -1.856399 -176.765938 -26.582488 -2.362746 2.235773 98.674876 -1.141215 3.998920 21.454558 -0.003108 -0.000017 6.008082 0.400976 1.491410 2.013472 0.776713 2.989417 1.695839 0.794893 2.984683 7.947548 2.017992 -4.705953 -11.435735 1.744906 -5.107660 -144.497092 -80.617577 -37.560061 19.602351 66.183379 59.671394 -21.261660 -4.067869 0.376401 11.255339 4.254286 2.032509 176.668307 79.218726 -1.911814 6.053548 -58.562677 -22.210508 -49.808519 15.020086 -1.775516 5.272964 6.761956 -5.925465 
183.528733 0.000000 224.957932 180.000000 -48.969594 180.000000 -1.475336 87.797836 -0.181429 87.769279 -0.384206 177.399117 150.461595 -2.020991 174.162720 -20.323271 1.911639 -1.789532 64.527611 1.017091 -0.714299 21.454553 0.003089 -0.000003 -177.108444 0.731799 -176.891463 -30.780125 -2.010822 1.935771 95.890829 -0.775860 4.698858 21.454557 -0.003105 -0.000017 6.238208 0.072649 1.432391 2.465046 0.115459 2.865983 2.147396 0.132903 2.865242 8.018585 1.697528 -4.729276 -12.033971 2.695610 -5.494858 -145.395056 -80.513218 -36.652861 18.712635 66.281269 58.855713 -20.182893 -3.488303 0.324357 11.442064 4.881586 2.031030 175.563456 78.642026 -3.050689 6.710570 -59.462213 -22.071249 -48.061722 14.951805 -1.715384 5.730121 7.777525 -5.584731 
181.770985 0.000000 227.682315 180.000000 -48.622239 180.000000 -1.304265 88.003517 -0.706280 88.211391 -1.513024 176.852903 150.976509 -1.092408 176.142232 -24.847706 0.155898 -3.725950 68.467271 2.562859 -0.377040 21.454551 0.003095 0.000000 -179.474463 3.236095 -174.903072 -38.655329 -3.282979 0.540260 89.734329 0.608613 5.619489 21.454558 -0.003108 -0.000018 6.381960 -0.201744 1.371840 2.745896 -0.435356 2.738620 2.428196 -0.418680 2.741198 8.416850 1.505737 -4.807584 -12.566822 3.462879 -5.877155 -147.128927 -80.481178 -34.895020 16.505374 66.219975 57.980287 -20.021342 -3.389158 0.315784 11.904233 5.270913 1.912702 173.330680 78.405832 -5.330000 8.317428 -61.157780 -22.690126 -45.417066 15.130346 -1.646390 6.287756 7.554321 -4.705632 
179.981145 0.000000 230.367199 180.000000 -48.272713 180.000000 -1.303855 88.153976 -1.018643 88.227319 -1.871558 176.378952 151.486766 -1.088596 172.608115 -28.416355 0.624401 -2.399799 72.432981 1.806324 0.278852 21.454553 0.003090 0.000001 176.100459 4.856192 -174.834592 -48.357743 -4.070633 -0.498883 81.365803 1.944606 6.249697 21.454557 -0.003105 -0.000020 6.400619 -0.263921 1.260250 2.782321 -0.557501 2.513941 2.464535 -0.542176 2.517258 8.481609 1.517824 -4.965541 -11.414394 3.382105 -5.968737 -148.263190 -80.483882 -33.745099 14.108532 66.260478 56.377799 -20.812560 -3.829608 0.354852 12.442056 5.374856 3.093036 169.813393 78.622014 -8.901993 10.709161 -62.728239 -25.131193 -42.047372 14.547716 -1.511369 6.517182 9.498840 -2.306230 
178.157456 0.000000 233.001127 180.000000 -47.926486 180.000000 -1.249447 88.554230 -1.294792 88.355985 -2.082344 175.544374 153.292449 -1.080502 171.366905 -29.830107 0.357457 -2.412088 75.323736 1.850063 0.462112 21.454551 0.003098 0.000002 171.191001 5.937610 -175.478324 -57.979434 -4.666192 -0.389184 73.602405 2.151031 5.572132 21.454565 -0.003108 -0.000018 6.414141 -0.278442 1.148371 2.809638 -0.584160 2.289791 2.491797 -0.570203 2.293283 8.682732 1.645796 -5.145010 -10.331821 2.601721 -5.864292 -149.018048 -80.459062 -32.979978 10.988835 66.036967 54.788543 -22.512228 -4.648917 0.431514 11.944733 5.445976 3.324289 166.666055 78.802099 -12.095602 12.783026 -63.677294 -28.168752 -39.191417 14.378636 -1.424085 6.984157 8.317733 -0.968910 
176.307455 0.000000 235.568094 180.000000 -47.589819 180.000000 -1.199792 88.874634 -1.564951 88.827052 -2.529687 174.816858 155.710691 -0.338107 169.768750 -30.446921 0.921397 -2.368275 77.762154 1.739474 0.316481 21.454553 0.003079 -0.000002 166.406426 6.857409 -176.639962 -66.979027 -4.483993 1.583122 70.064142 0.761261 5.076239 21.454555 -0.003107 -0.000018 6.516736 -0.347148 0.922057 3.014931 -0.717814 1.834946 2.696989 -0.706581 1.839251 8.663893 1.427355 -5.138284 -9.654840 2.622758 -5.871428 -147.567835 -80.423654 -34.452174 6.328017 65.609902 51.878347 -24.732178 -5.555386 0.523516 11.306341 4.678828 2.536164 164.919371 79.134701 -13.856696 14.125067 -64.466276 -30.262611 -37.242546 14.054152 -1.354052 7.045169 5.380198 -2.991495 
174.424202 0.000000 238.062947 180.000000 -47.258708 180.000000 -1.249928 89.100838 -1.768298 89.556501 -3.005582 174.273374 158.447903 0.457605 169.514790 -30.689884 0.694412 -2.881022 79.876282 2.038580 0.156885 21.454553 0.003075 -0.000002 162.474464 7.369210 -177.119100 -73.438508 -4.352333 5.043645 71.251140 -1.142754 6.987399 21.454551 -0.003104 -0.000022 6.673546 -0.466095 0.643915 3.329092 -0.950267 1.274414 3.011033 -0.942424 1.280128 8.895406 1.721804 -5.276020 -9.523613 2.842849 -6.038796 -147.984859 -80.576356 -34.022979 0.383198 64.718221 47.908487 -26.403722 -6.522290 0.613962 10.136222 2.406178 0.209162 165.518378 78.918444 -13.257302 15.132368 -64.465641 -31.835519 -36.066571 13.716842 -1.303899 6.966010 2.017666 -6.217314 
